  <svg xmlns="http://www.w3.org/2000/svg" xmlns:xlink="http://www.w3.org/1999/xlink" width="140.49" height="41.43" viewBox="0 0 140.49 41.43"><defs><style>.a{fill:url(#a);}.b{fill:url(#b);}.c{fill:#3c3c3b;}</style><linearGradient id="a" x1="120.12" y1="20.14" x2="127.17" y2="39.25" gradientUnits="userSpaceOnUse"><stop offset="0" stop-color="#3c3c3b"/><stop offset="1" stop-color="#3c3c3b"/></linearGradient><linearGradient id="b" x1="125.47" y1="32.6" x2="128.96" y2="42.07" xlink:href="#a"/></defs><title>logo</title><path class="a" d="M127.87,16.93V29.16l-.06.07-1,1.24s0,0,0,0l-1.18-1.24a1.08,1.08,0,0,0-1.33,0l-1.21,1a9.2,9.2,0,0,0-1.63-1.21.47.47,0,0,0-.67.17A.51.51,0,0,0,121,30c6.57,3.86,5.1,15.08,5.1,15.19s0,.05,0,.07H122.8V43a5.64,5.64,0,0,0-2.39-4.7,14.18,14.18,0,0,1,2.68-24.85A3.48,3.48,0,0,1,127.87,16.93Z" transform="translate(-2.26 -13.18)"/><path class="b" d="M127.62,31.1l.25-.31V45.23h-.81c.11-.94,1.05-9.35-3.26-14.2L125,30l1.19,1.25A1.07,1.07,0,0,0,127.62,31.1Z" transform="translate(-2.26 -13.18)"/><path class="c" d="M141.8,29.84c.86-.53,1.11-2,.84-3.09a2.91,2.91,0,0,0-2-2.23,3,3,0,0,0,1-2.23,3.36,3.36,0,0,0-3.34-3.16,3.55,3.55,0,0,0,.29-1.38c0-1.61-1.6-3.74-4-4.35a4.64,4.64,0,0,0-4.11.61,3.86,3.86,0,0,0-1.43,3.21V45.36h5.35V42.7a4.65,4.65,0,0,1,.46-2.26,4,4,0,0,0,.2-1.51,2,2,0,0,0,.49.07h.06a2.12,2.12,0,0,0,1.48-.72,2.88,2.88,0,0,0,.75-2.25l0-.12H138a3.61,3.61,0,0,0,2.51-.84,2.26,2.26,0,0,0,.66-1.34,2.84,2.84,0,0,0,.34-.22,2.66,2.66,0,0,0,.77-2,3.07,3.07,0,0,0-.51-1.61A0,0,0,0,1,141.8,29.84Zm-.52-.85c-.26.16-.69-.14-.92-.34a.49.49,0,1,0-.64.74,2.41,2.41,0,0,0,.86.54,2.12,2.12,0,0,1,.73,1.56,1.74,1.74,0,0,1-.45,1.28c-.38.35-1.32.26-2.08-.44a5.15,5.15,0,0,1-.6-.71c-.53-.72-.79-1.88-.38-2.38a.49.49,0,0,0-.06-.7.48.48,0,0,0-.69.06,2,2,0,0,0-.45,1.33,3.19,3.19,0,0,0-3.36-.29.52.52,0,0,0-.28.64.5.5,0,0,0,.65.28c1.91-.77,2.75.34,3.66,1.51a1.71,1.71,0,0,0,.11.14l0,0s0,0,0,0a6.8,6.8,0,0,0,.7.8,3.32,3.32,0,0,0,2,.87,1.14,1.14,0,0,1-.28.42,3,3,0,0,1-2.34.53,2.88,2.88,0,0,1-2.19-1.76.47.47,0,0,0-.56-.4.5.5,0,0,0-.41.58,1.87,1.87,0,0,0,.13.4,3.65,3.65,0,0,0-2.29.46.49.49,0,0,0-.16.68.5.5,0,0,0,.69.15,3.23,3.23,0,0,1,2.73,0l.07.06a.64.64,0,0,0,.16.11,4.37,4.37,0,0,0,.88.51h0a.71.71,0,0,1,.39.53,1.92,1.92,0,0,1-.49,1.42,1.2,1.2,0,0,1-.79.4,1.13,1.13,0,0,1-.82-.38h0a2.69,2.69,0,0,0-.16-.29,1.5,1.5,0,0,0-1.24-.68.52.52,0,0,0-.5.48.5.5,0,0,0,.49.51.52.52,0,0,1,.44.26,2.88,2.88,0,0,1,.18,2.16,5.64,5.64,0,0,0-.54,2.64v1.67h-3.37v-20A5,5,0,0,0,133,27.13l.15,0a.5.5,0,0,0,.48-.34.5.5,0,0,0-.32-.62c-2.21-.74-2.78-3.32-3.13-4.86l0-.17a.05.05,0,0,0,0,0V17.22a3,3,0,0,1,1-2.43,3.77,3.77,0,0,1,3.26-.43,4.18,4.18,0,0,1,3.21,3.39,2.69,2.69,0,0,1-2.74,2.63h-.26a.5.5,0,0,0-.09,1h.35a3.71,3.71,0,0,0,2.78-1.23,3.13,3.13,0,0,1,.44,0,2.41,2.41,0,0,1,2.58,2.19,2.41,2.41,0,0,1-2.58,2.2,2.72,2.72,0,0,1-2-.86.5.5,0,0,0-.71,0,.49.49,0,0,0,0,.69,3.49,3.49,0,0,0,2.06,1.13,2.79,2.79,0,0,0-.36,1.44.5.5,0,1,0,1,0c0-1,.49-1.49,1.57-1.49A2,2,0,0,1,141.68,27C141.87,27.77,141.67,28.76,141.28,29Z" transform="translate(-2.26 -13.18)"/><path class="c" d="M135,47.83v.51H121.93v-.51a1.31,1.31,0,0,1,1.35-1.24h10.41A1.31,1.31,0,0,1,135,47.83Z" transform="translate(-2.26 -13.18)"/><path class="c" d="M121.93,49.39H135v.5a1.3,1.3,0,0,1-1.35,1.24H123.28a1.3,1.3,0,0,1-1.35-1.24Z" transform="translate(-2.26 -13.18)"/><path class="c" d="M121.51,39h9.2a0,0,0,0,1,0,0v0a2.42,2.42,0,0,1-2.42,2.42h-4.37A2.42,2.42,0,0,1,121.51,39v0A0,0,0,0,1,121.51,39Z"/><path class="c" d="M20.11,52.33l-4.22,1.16.57-22.55a3,3,0,0,0-.56-2.25,3.29,3.29,0,0,0-2.2-.56H6.17V31c0,1,.46,1.55,1.37,1.55h2.1L8.89,37H4.74c-1.87,0-2.69-1.06-2.44-3.17L3,28.43a19.18,19.18,0,0,0-.57-6.55L4.83,21c.65.8,1,1.22,1,1.25a2.53,2.53,0,0,0,1.64.43h7.89a5,5,0,0,1,3.59,1c.69.68,1,1.91,1,3.67l-.2,9.26Q19.53,48.55,20.11,52.33Z" transform="translate(-2.26 -13.18)"/><path class="c" d="M43,40.6l-1.35,5.23h-.89q-4.8-5.69-13-13.57a8.66,8.66,0,0,0-1,2.94q0,1.39,2,4.86l-.41,5.08-6.86.46.57-5.09,1.8-.61a22.12,22.12,0,0,1-.73-4.24c0-1.31.83-3.11,2.51-5.39-.81-.74-2-1.74-3.7-3l.44-2a16.44,16.44,0,0,0,.41-3.13L25,21.61a9.35,9.35,0,0,0,2.06,2.89q4,3.63,7.84,7.42a22,22,0,0,0,.55-5V25.33c0-.69-.05-1.15-.05-1.4,0-1.12.72-1.68,2.15-1.68a32.37,32.37,0,0,1,4.92.22l-.34,5.71-1.64.13a2.83,2.83,0,0,0-2.17,1.33,4.36,4.36,0,0,0-.82,2.5,5,5,0,0,0,1,3.42Q39.85,37,43,40.6Z" transform="translate(-2.26 -13.18)"/><path class="c" d="M62.67,44.66,59,45.6l.14-13.55a4.34,4.34,0,0,0-.66-2.69,3.51,3.51,0,0,0-2.76-.93H44.93l.22-2.35a14,14,0,0,0-.45-4.15l2.42-1c.28.44.57.87.84,1.3a2.29,2.29,0,0,0,1.55.38h8.21c1.87,0,3.14.41,3.81,1.21a6.52,6.52,0,0,1,1,4.11v4.81Z" transform="translate(-2.26 -13.18)"/><path class="c" d="M77.78,44.48,74.31,45.6l-2.1-5.75h-.75l-1.25,4a1.78,1.78,0,0,1-1.64,1.28l-3.93.54-.27-.13.93-6.43,2.28-.44a7.06,7.06,0,0,0,3.2-1.3,1.88,1.88,0,0,0,.77-1.41V30.57a5.71,5.71,0,0,0-.09-1.16c-.12-.73-.71-1.1-1.78-1.1H65.3l.23-2a13,13,0,0,0-.36-4.42l2.37-1a5.31,5.31,0,0,0,1.08,1.42,3.23,3.23,0,0,0,1.63.26h2.63a2.48,2.48,0,0,1,2,.59,3.19,3.19,0,0,1,.37,2.11l-.32,5a24,24,0,0,0,.89,8.12Q76.28,40.38,77.78,44.48Z" transform="translate(-2.26 -13.18)"/><path class="c" d="M86.78,44.66,83,45.6l.28-14.8c0-1.61-.64-2.42-2-2.42H77.57l.22-2.48a10.84,10.84,0,0,0-.31-4l2.41-1a15.4,15.4,0,0,0,.94,1.3,1.35,1.35,0,0,0,1,.38H84c1.73,0,2.6.94,2.6,2.81v9.23Z" transform="translate(-2.26 -13.18)"/><path class="c" d="M99,28.18a10.07,10.07,0,0,1-.66,3.28,11.85,11.85,0,0,1-1.87,3.31l-1.56,2-2-1.26c.44-.62,1-1.48,1.65-2.57a8.11,8.11,0,0,0,.79-2.85c0-1.14-.65-1.71-2-1.71h-4.4l.09-3.51v-1A5.53,5.53,0,0,0,88.69,22l2.53-1a3,3,0,0,0,.89,1.39,1.44,1.44,0,0,0,1,.25h1.84a3.7,3.7,0,0,1,2.4.64C98.45,24.22,99,25.85,99,28.18Z" transform="translate(-2.26 -13.18)"/><path class="c" d="M112.08,40.24l-1,5.13H99.74l1.34-6.2h6.09c.4,0,.59-.22.59-.66,0-.09,0-1.31-.09-3.65-.06-1.78-.09-3.17-.09-4.16s-.23-1.65-.7-1.95a3.48,3.48,0,0,0-1.83-.32h-3.67l.18-2.35a12.22,12.22,0,0,0-.52-4.15l2.39-1c.53.8.83,1.24.89,1.3a2.13,2.13,0,0,0,1.44.38h1.91a4.89,4.89,0,0,1,2.67.51c.66.5.94,1.49.85,3l-.39,6.59A28.3,28.3,0,0,0,112.08,40.24Z" transform="translate(-2.26 -13.18)"/></svg>